<?xml version="1.0" standalone="no"?><!DOCTYPE svg PUBLIC "-//W3C//DTD SVG 1.1//EN" "http://www.w3.org/Graphics/SVG/1.1/DTD/svg11.dtd"><svg width="100%" height="100%" viewBox="0 0 419 87" version="1.1" xmlns="http://www.w3.org/2000/svg" xmlns:xlink="http://www.w3.org/1999/xlink" xml:space="preserve" style="fill-rule:evenodd;clip-rule:evenodd;stroke-linejoin:round;stroke-miterlimit:1.41421;"><g><path d="M136.851,46.257l0,-6.528l15.552,0l0,19.2c-0.384,0.469 -0.981,1.003 -1.792,1.6c-0.811,0.597 -1.856,1.163 -3.136,1.696c-1.28,0.533 -2.784,0.981 -4.512,1.344c-1.728,0.363 -3.723,0.544 -5.984,0.544c-3.456,0 -6.453,-0.565 -8.992,-1.696c-2.539,-1.131 -4.629,-2.688 -6.272,-4.672c-1.643,-1.984 -2.859,-4.352 -3.648,-7.104c-0.789,-2.752 -1.184,-5.749 -1.184,-8.992c0,-3.2 0.416,-6.155 1.248,-8.864c0.832,-2.709 2.101,-5.067 3.808,-7.072c1.707,-2.005 3.861,-3.573 6.464,-4.704c2.603,-1.131 5.675,-1.696 9.216,-1.696c1.749,0 3.435,0.203 5.056,0.608c1.621,0.405 3.061,0.928 4.32,1.568c1.259,0.64 2.272,1.355 3.04,2.144c0.768,0.789 1.152,1.589 1.152,2.4c0,0.725 -0.309,1.536 -0.928,2.432c-0.619,0.896 -1.355,1.707 -2.208,2.432c-0.512,-0.469 -1.099,-0.96 -1.76,-1.472c-0.661,-0.512 -1.408,-0.981 -2.24,-1.408c-0.832,-0.427 -1.771,-0.779 -2.816,-1.056c-1.045,-0.277 -2.208,-0.416 -3.488,-0.416c-2.304,0 -4.224,0.427 -5.76,1.28c-1.536,0.853 -2.752,1.973 -3.648,3.36c-0.896,1.387 -1.536,2.976 -1.92,4.768c-0.384,1.792 -0.576,3.648 -0.576,5.568c0,2.048 0.203,4.011 0.608,5.888c0.405,1.877 1.067,3.531 1.984,4.96c0.917,1.429 2.155,2.581 3.712,3.456c1.557,0.875 3.488,1.312 5.792,1.312c1.109,0 2.048,-0.085 2.816,-0.256c0.768,-0.171 1.408,-0.363 1.92,-0.576c0.597,-0.256 1.088,-0.555 1.472,-0.896l0,-9.152l-7.296,0Z" style="fill:#ce3d38;fill-rule:nonzero;"/><path d="M176.275,57.585c1.067,0 2.005,-0.117 2.816,-0.352c0.811,-0.235 1.536,-0.523 2.176,-0.864c0.64,-0.341 1.195,-0.715 1.664,-1.12c0.469,-0.405 0.896,-0.779 1.28,-1.12c0.512,0.64 1.045,1.461 1.6,2.464c0.555,1.003 0.832,1.824 0.832,2.464c0,0.939 -0.533,1.792 -1.6,2.56c-0.896,0.683 -2.165,1.269 -3.808,1.76c-1.643,0.491 -3.573,0.736 -5.792,0.736c-2.005,0 -3.979,-0.256 -5.92,-0.768c-1.941,-0.512 -3.669,-1.408 -5.184,-2.688c-1.515,-1.28 -2.741,-2.997 -3.68,-5.152c-0.939,-2.155 -1.408,-4.875 -1.408,-8.16c0,-2.688 0.416,-5.003 1.248,-6.944c0.832,-1.941 1.941,-3.552 3.328,-4.832c1.387,-1.28 2.955,-2.219 4.704,-2.816c1.749,-0.597 3.541,-0.896 5.376,-0.896c2.389,0 4.416,0.373 6.08,1.12c1.664,0.747 3.019,1.749 4.064,3.008c1.045,1.259 1.803,2.699 2.272,4.32c0.469,1.621 0.704,3.328 0.704,5.12c0,0.256 0,0.555 0,0.896c0,0.341 -0.011,0.704 -0.032,1.088c-0.021,0.384 -0.043,0.757 -0.064,1.12c-0.021,0.363 -0.053,0.651 -0.096,0.864l-18.816,0c0.171,2.347 0.896,4.299 2.176,5.856c1.28,1.557 3.307,2.336 6.08,2.336ZM179.155,44.593c0,-2.048 -0.395,-3.712 -1.184,-4.992c-0.789,-1.28 -2.208,-1.92 -4.256,-1.92c-1.749,0 -3.147,0.608 -4.192,1.824c-1.045,1.216 -1.568,2.912 -1.568,5.088l11.2,0Z" style="fill:#ce3d38;fill-rule:nonzero;"/><path d="M202.195,63.025l-8.768,0l0,-30.272c0.213,-0.043 0.469,-0.085 0.768,-0.128c0.256,-0.043 0.555,-0.075 0.896,-0.096c0.341,-0.021 0.747,-0.032 1.216,-0.032c1.365,0 2.549,0.245 3.552,0.736c1.003,0.491 1.632,1.355 1.888,2.592c0.725,-0.981 1.845,-1.888 3.36,-2.72c1.515,-0.832 3.531,-1.248 6.048,-1.248c2.389,0 4.171,0.427 5.344,1.28c1.173,0.853 2.037,1.856 2.592,3.008c0.896,-1.109 2.133,-2.101 3.712,-2.976c1.579,-0.875 3.584,-1.312 6.016,-1.312c1.536,0 2.848,0.171 3.936,0.512c1.088,0.341 2.005,0.811 2.752,1.408c0.747,0.597 1.323,1.291 1.728,2.08c0.405,0.789 0.672,1.632 0.8,2.528c0.171,0.981 0.288,2.048 0.352,3.2c0.064,1.152 0.096,2.283 0.096,3.392l0,18.048l-8.704,0l0,-17.664c0,-0.939 -0.021,-1.792 -0.064,-2.56c-0.043,-0.768 -0.203,-1.429 -0.48,-1.984c-0.277,-0.555 -0.704,-0.981 -1.28,-1.28c-0.576,-0.299 -1.376,-0.448 -2.4,-0.448c-1.109,0 -2.165,0.256 -3.168,0.768c-1.003,0.512 -1.696,1.067 -2.08,1.664c0.128,1.237 0.192,2.496 0.192,3.776l0,17.728l-8.704,0l0,-17.664c0,-0.939 -0.021,-1.813 -0.064,-2.624c-0.043,-0.811 -0.213,-1.504 -0.512,-2.08c-0.299,-0.576 -0.747,-1.024 -1.344,-1.344c-0.597,-0.32 -1.451,-0.48 -2.56,-0.48c-1.493,0 -2.72,0.331 -3.68,0.992c-0.96,0.661 -1.44,1.483 -1.44,2.464l0,20.736Z" style="fill:#ce3d38;fill-rule:nonzero;"/><path d="M255.379,63.409c-0.213,0.085 -0.619,0.149 -1.216,0.192c-0.597,0.043 -1.259,0.064 -1.984,0.064c-0.725,0 -1.419,-0.075 -2.08,-0.224c-0.661,-0.149 -1.248,-0.427 -1.76,-0.832c-0.512,-0.405 -0.917,-0.949 -1.216,-1.632c-0.299,-0.683 -0.448,-1.557 -0.448,-2.624l0,-40.448c0,-0.043 0.32,-0.096 0.96,-0.16c0.64,-0.064 1.301,-0.096 1.984,-0.096c0.683,0 1.365,0.064 2.048,0.192c0.683,0.128 1.301,0.373 1.856,0.736c0.555,0.363 1.003,0.875 1.344,1.536c0.341,0.661 0.512,1.525 0.512,2.592l0,40.704Z" style="fill:#ce3d38;fill-rule:nonzero;"/><path d="M272.275,63.409c-0.171,0.085 -0.555,0.149 -1.152,0.192c-0.597,0.043 -1.237,0.064 -1.92,0.064c-0.853,0 -1.621,-0.075 -2.304,-0.224c-0.683,-0.149 -1.269,-0.427 -1.76,-0.832c-0.491,-0.405 -0.875,-0.949 -1.152,-1.632c-0.277,-0.683 -0.416,-1.557 -0.416,-2.624l0,-25.6c0,-0.043 0.32,-0.096 0.96,-0.16c0.64,-0.064 1.301,-0.096 1.984,-0.096c0.683,0 1.365,0.064 2.048,0.192c0.683,0.128 1.301,0.373 1.856,0.736c0.555,0.363 1.003,0.875 1.344,1.536c0.341,0.661 0.512,1.525 0.512,2.592l0,25.856ZM272.339,22.513c0,1.365 -0.459,2.475 -1.376,3.328c-0.917,0.853 -2.016,1.28 -3.296,1.28c-1.323,0 -2.432,-0.427 -3.328,-1.28c-0.896,-0.853 -1.344,-1.963 -1.344,-3.328c0,-1.365 0.448,-2.485 1.344,-3.36c0.896,-0.875 2.005,-1.312 3.328,-1.312c1.28,0 2.379,0.437 3.296,1.312c0.917,0.875 1.376,1.995 1.376,3.36Z" style="fill:#ce3d38;fill-rule:nonzero;"/><path d="M300.819,26.417c-0.725,-0.725 -1.632,-1.323 -2.72,-1.792c-1.088,-0.469 -2.315,-0.704 -3.68,-0.704c-1.621,0 -2.912,0.427 -3.872,1.28c-0.96,0.853 -1.44,2.304 -1.44,4.352l0,3.008l10.24,0l0,6.592l-10.24,0l0,23.872l-8.64,0l0,-33.216c0,-4.139 1.099,-7.285 3.296,-9.44c2.197,-2.155 5.323,-3.232 9.376,-3.232c1.536,0 3.083,0.171 4.64,0.512c1.557,0.341 2.848,0.853 3.872,1.536c1.067,0.725 1.6,1.621 1.6,2.688c0,0.597 -0.256,1.323 -0.768,2.176c-0.512,0.853 -1.067,1.643 -1.664,2.368Z" style="fill:#ce3d38;fill-rule:nonzero;"/><path d="M304.595,58.417c-0.299,-0.853 -0.491,-1.749 -0.576,-2.688c-0.085,-0.939 -0.128,-1.877 -0.128,-2.816l0,-29.696c0.299,-0.043 0.619,-0.085 0.96,-0.128c0.299,-0.043 0.619,-0.075 0.96,-0.096c0.341,-0.021 0.683,-0.032 1.024,-0.032c0.683,0 1.365,0.064 2.048,0.192c0.683,0.128 1.301,0.384 1.856,0.768c0.555,0.384 1.003,0.907 1.344,1.568c0.341,0.661 0.512,1.525 0.512,2.592l0,4.48l8.96,0l0,6.528l-8.96,0l0,13.696c0,2.987 1.216,4.48 3.648,4.48c0.597,0 1.163,-0.096 1.696,-0.288c0.533,-0.192 1.013,-0.405 1.44,-0.64c0.427,-0.235 0.8,-0.48 1.12,-0.736c0.32,-0.256 0.544,-0.448 0.672,-0.576c0.64,0.939 1.131,1.749 1.472,2.432c0.341,0.683 0.512,1.323 0.512,1.92c0,0.555 -0.224,1.099 -0.672,1.632c-0.448,0.533 -1.077,1.024 -1.888,1.472c-0.811,0.448 -1.792,0.811 -2.944,1.088c-1.152,0.277 -2.411,0.416 -3.776,0.416c-2.645,0 -4.704,-0.512 -6.176,-1.536c-1.472,-1.024 -2.507,-2.368 -3.104,-4.032Z" style="fill:#ce3d38;fill-rule:nonzero;"/><path d="M336.915,63.409c-0.171,0.085 -0.555,0.149 -1.152,0.192c-0.597,0.043 -1.237,0.064 -1.92,0.064c-0.853,0 -1.621,-0.075 -2.304,-0.224c-0.683,-0.149 -1.269,-0.427 -1.76,-0.832c-0.491,-0.405 -0.875,-0.949 -1.152,-1.632c-0.277,-0.683 -0.416,-1.557 -0.416,-2.624l0,-25.6c0,-0.043 0.32,-0.096 0.96,-0.16c0.64,-0.064 1.301,-0.096 1.984,-0.096c0.683,0 1.365,0.064 2.048,0.192c0.683,0.128 1.301,0.373 1.856,0.736c0.555,0.363 1.003,0.875 1.344,1.536c0.341,0.661 0.512,1.525 0.512,2.592l0,25.856ZM336.979,22.513c0,1.365 -0.459,2.475 -1.376,3.328c-0.917,0.853 -2.016,1.28 -3.296,1.28c-1.323,0 -2.432,-0.427 -3.328,-1.28c-0.896,-0.853 -1.344,-1.963 -1.344,-3.328c0,-1.365 0.448,-2.485 1.344,-3.36c0.896,-0.875 2.005,-1.312 3.328,-1.312c1.28,0 2.379,0.437 3.296,1.312c0.917,0.875 1.376,1.995 1.376,3.36Z" style="fill:#ce3d38;fill-rule:nonzero;"/><path d="M353.875,63.025l-8.768,0l0,-30.272c0.213,-0.043 0.469,-0.085 0.768,-0.128c0.256,-0.043 0.555,-0.075 0.896,-0.096c0.341,-0.021 0.747,-0.032 1.216,-0.032c1.365,0 2.549,0.245 3.552,0.736c1.003,0.491 1.632,1.355 1.888,2.592c0.725,-0.981 1.845,-1.888 3.36,-2.72c1.515,-0.832 3.531,-1.248 6.048,-1.248c3.029,0 5.269,0.597 6.72,1.792c1.451,1.195 2.389,2.773 2.816,4.736c0.213,0.981 0.352,2.048 0.416,3.2c0.064,1.152 0.096,2.283 0.096,3.392l0,18.048l-8.704,0l0,-17.664c0,-0.939 -0.032,-1.813 -0.096,-2.624c-0.064,-0.811 -0.235,-1.504 -0.512,-2.08c-0.277,-0.576 -0.725,-1.024 -1.344,-1.344c-0.619,-0.32 -1.483,-0.48 -2.592,-0.48c-1.579,0 -2.933,0.331 -4.064,0.992c-1.131,0.661 -1.696,1.483 -1.696,2.464l0,20.736Z" style="fill:#ce3d38;fill-rule:nonzero;"/><path d="M408.275,60.657c0,2.517 -0.245,4.811 -0.736,6.88c-0.491,2.069 -1.344,3.851 -2.56,5.344c-1.216,1.493 -2.827,2.645 -4.832,3.456c-2.005,0.811 -4.523,1.216 -7.552,1.216c-2.56,0 -4.661,-0.192 -6.304,-0.576c-1.643,-0.384 -2.955,-0.853 -3.936,-1.408c-0.853,-0.469 -1.397,-0.96 -1.632,-1.472c-0.235,-0.512 -0.352,-1.003 -0.352,-1.472c0,-0.683 0.277,-1.483 0.832,-2.4c0.555,-0.917 1.109,-1.739 1.664,-2.464c0.299,0.299 0.715,0.64 1.248,1.024c0.533,0.384 1.184,0.757 1.952,1.12c0.768,0.363 1.632,0.672 2.592,0.928c0.96,0.256 2.016,0.384 3.168,0.384c1.664,0 3.019,-0.224 4.064,-0.672c1.045,-0.448 1.867,-1.088 2.464,-1.92c0.597,-0.832 1.013,-1.845 1.248,-3.04c0.235,-1.195 0.352,-2.56 0.352,-4.096l0,-1.152c-0.597,0.725 -1.557,1.397 -2.88,2.016c-1.323,0.619 -2.987,0.928 -4.992,0.928c-1.579,0 -3.104,-0.245 -4.576,-0.736c-1.472,-0.491 -2.784,-1.333 -3.936,-2.528c-1.152,-1.195 -2.069,-2.763 -2.752,-4.704c-0.683,-1.941 -1.024,-4.363 -1.024,-7.264c0,-2.944 0.352,-5.44 1.056,-7.488c0.704,-2.048 1.643,-3.723 2.816,-5.024c1.173,-1.301 2.517,-2.24 4.032,-2.816c1.515,-0.576 3.104,-0.864 4.768,-0.864c1.877,0 3.435,0.32 4.672,0.96c1.237,0.64 2.197,1.451 2.88,2.432c0.341,-0.981 0.981,-1.685 1.92,-2.112c0.939,-0.427 2.027,-0.64 3.264,-0.64c0.341,0 0.704,0.011 1.088,0.032c0.384,0.021 0.725,0.053 1.024,0.096c0.341,0.043 0.661,0.085 0.96,0.128l0,27.904ZM388.755,47.537c0,2.987 0.448,5.344 1.344,7.072c0.896,1.728 2.581,2.592 5.056,2.592c1.493,0 2.667,-0.288 3.52,-0.864c0.853,-0.576 1.28,-1.333 1.28,-2.272l0,-13.696c-0.341,-0.341 -0.928,-0.747 -1.76,-1.216c-0.832,-0.469 -1.803,-0.704 -2.912,-0.704c-4.352,0 -6.528,3.029 -6.528,9.088Z" style="fill:#ce3d38;fill-rule:nonzero;"/></g><g><g><path d="M32.321,18.325c0.768,0.911 1.332,3.878 1.332,7.393c0,3.515 -0.564,6.481 -1.332,7.392l-3.687,5.833c-0.475,0.9 -1.005,1.404 -1.564,1.404c-0.251,0 -0.495,-0.101 -0.732,-0.293l-0.012,-0.01c-0.025,-0.021 -0.049,-0.043 -0.074,-0.065l-16.372,-14.261l16.372,-14.262c0.025,-0.022 0.049,-0.044 0.074,-0.065l0.012,-0.01l0,0.001c0.237,-0.193 0.481,-0.294 0.732,-0.294c0.559,0 1.089,0.504 1.564,1.404l3.687,5.833Z" style="fill:#c51b15;"/><path d="M9.88,25.718l16.373,-14.263c-1.626,1.486 -2.841,7.311 -2.841,14.263c0,6.951 1.215,12.776 2.841,14.262l-16.373,-14.262l0,0ZM26.338,40.054l-0.012,-0.01l0.007,0.005l0.005,0.005ZM26.333,11.386l-0.007,0.005l0.012,-0.01l0,0.001l-0.005,0.004Z" style="fill:#000;fill-opacity:0.101961;"/><path d="M32.321,33.11l-3.687,5.833c-0.475,0.9 -1.005,1.404 -1.564,1.404c-2.019,0 -3.658,-6.555 -3.658,-14.629c0,-8.074 1.639,-14.63 3.658,-14.63c0.559,0 1.089,0.504 1.564,1.404l3.687,5.833c-0.158,-0.187 -0.324,-0.288 -0.497,-0.288c-1.009,0 -1.828,3.442 -1.828,7.681c0,4.238 0.819,7.68 1.828,7.68c0.173,0 0.339,-0.1 0.497,-0.288Z" style="fill:#000;fill-opacity:0;"/><path d="M33.653,25.718c0,4.238 -0.82,7.68 -1.829,7.68c-1.009,0 -1.828,-3.442 -1.828,-7.68c0,-4.239 0.819,-7.681 1.828,-7.681c1.009,0 1.829,3.442 1.829,7.681l0,0Z" style="fill:#fff;fill-opacity:0.14902;"/></g><g><path d="M74.346,33.11c-0.768,-0.911 -1.331,-3.877 -1.331,-7.392c0,-3.515 0.563,-6.482 1.331,-7.393l3.688,-5.833c0.474,-0.9 1.005,-1.404 1.564,-1.404c0.251,0 0.495,0.101 0.732,0.294l0,-0.001l0.011,0.01c0.025,0.021 0.05,0.043 0.075,0.065l16.371,14.262l-16.371,14.261c-0.025,0.022 -0.05,0.044 -0.075,0.065l-0.011,0.01c-0.237,0.192 -0.481,0.293 -0.732,0.293c-0.559,0 -1.09,-0.504 -1.564,-1.404l-3.688,-5.833l0,0Z" style="fill:#c51b15;"/><path d="M96.787,25.718l-16.372,14.262c1.626,-1.486 2.84,-7.311 2.84,-14.262c0,-6.952 -1.214,-12.777 -2.84,-14.263l16.372,14.263ZM80.33,11.382l0,-0.001l0.011,0.01l-0.006,-0.005l-0.005,-0.004ZM80.335,40.049l0.006,-0.005l-0.011,0.01l0.005,-0.005l0,0Z" style="fill:#fff;fill-opacity:0.14902;"/><path d="M74.346,18.325l3.688,-5.833c0.474,-0.9 1.005,-1.404 1.564,-1.404c2.019,0 3.657,6.556 3.657,14.63c0,8.074 -1.638,14.629 -3.657,14.629c-0.559,0 -1.09,-0.504 -1.564,-1.404l-3.688,-5.833c0.158,0.188 0.325,0.288 0.498,0.288c1.009,0 1.828,-3.442 1.828,-7.68c0,-4.239 -0.819,-7.681 -1.828,-7.681c-0.173,0 -0.34,0.101 -0.498,0.288l0,0Z" style="fill:#000;fill-opacity:0;"/><path d="M73.015,25.718c0,-4.239 0.819,-7.681 1.829,-7.681c1.009,0 1.828,3.442 1.828,7.681c0,4.238 -0.819,7.68 -1.828,7.68c-1.01,0 -1.829,-3.442 -1.829,-7.68l0,0Z" style="fill:#000;fill-opacity:0.101961;"/></g><path d="M32.065,27.14c-0.178,-0.002 -0.322,-0.639 -0.322,-1.422c0,-0.786 0.145,-1.423 0.323,-1.423l42.528,0c0.178,0 0.323,0.637 0.323,1.423c0,0.785 -0.145,1.422 -0.323,1.422l-42.528,0l-0.001,0l0,0Z" style="fill:#8c8c8c;"/><path d="M53.33,24.295l21.264,0c0.178,0 0.323,0.637 0.323,1.423c0,0.785 -0.145,1.422 -0.323,1.422l-21.264,0l0,-2.845l0,0Z" style="fill:#808080;"/></g><path d="M48.918,50.388c-0.618,-3.676 -1.236,-5.454 -1.856,-9.001c-0.012,-0.067 -0.035,-0.134 -0.067,-0.195l-4.239,-8.037c-0.048,-0.091 -0.074,-0.192 -0.076,-0.296l-0.123,-6.793c-0.006,-0.345 0.254,-0.636 0.596,-0.669c0.318,-0.031 0.615,0.169 0.699,0.477c0.452,1.642 1.062,5.438 1.258,6.491c0.02,0.108 0.068,0.209 0.138,0.294l4.276,5.217c0.125,0.153 0.313,0.242 0.51,0.242l6.599,0c0.198,0 0.385,-0.089 0.511,-0.242l4.276,-5.217c0.07,-0.085 0.118,-0.186 0.138,-0.294c0.197,-1.053 0.806,-4.849 1.258,-6.491c0.084,-0.308 0.381,-0.508 0.699,-0.477c0.342,0.033 0.601,0.324 0.595,0.669l-0.123,6.793c-0.001,0.104 -0.028,0.205 -0.076,0.296l-4.239,8.037c-0.032,0.061 -0.054,0.128 -0.066,0.195c-0.62,3.547 -1.238,5.325 -1.856,9.001c-0.013,0.075 -0.013,0.154 0.001,0.229l3.762,21.053c0.072,0.404 -0.239,0.776 -0.649,0.776l-0.568,0c-0.274,0 -0.519,-0.169 -0.617,-0.425l-5.729,-15.007c-0.216,-0.566 -1.017,-0.566 -1.233,0l-5.729,15.007c-0.097,0.256 -0.342,0.425 -0.616,0.425l-0.568,0c-0.411,0 -0.722,-0.372 -0.65,-0.776l3.763,-21.053c0.014,-0.075 0.014,-0.154 0.001,-0.229l0,0Z" style="fill:#8c8c8c;"/><path d="M53.334,28.244c2.396,0 4.339,1.942 4.339,4.339c0,2.396 -1.943,4.339 -4.339,4.339c-2.396,0 -4.339,-1.943 -4.339,-4.339c0,-2.397 1.943,-4.339 4.339,-4.339Z" style="fill:#8c8c8c;"/><path d="M53.33,38.118l3.303,0c0.198,0 0.385,-0.089 0.511,-0.242l4.276,-5.217c0.07,-0.085 0.118,-0.186 0.138,-0.294c0.197,-1.053 0.806,-4.849 1.258,-6.491c0.084,-0.308 0.381,-0.508 0.699,-0.477c0.342,0.033 0.601,0.324 0.595,0.669l-0.123,6.793c-0.001,0.104 -0.028,0.205 -0.076,0.296l-4.239,8.037c-0.032,0.061 -0.054,0.128 -0.066,0.195c-0.62,3.547 -1.238,5.325 -1.856,9.001c-0.013,0.075 -0.013,0.154 0.001,0.229l3.762,21.053c0.072,0.404 -0.239,0.776 -0.649,0.776l-0.568,0c-0.274,0 -0.519,-0.169 -0.617,-0.425l-5.729,-15.007c-0.108,-0.284 -0.364,-0.425 -0.62,-0.424l0,-18.472l0,0ZM53.33,28.244l0.004,0c2.396,0 4.339,1.942 4.339,4.339c0,2.396 -1.943,4.339 -4.339,4.339l-0.004,0l0,-8.678l0,0Z" style="fill:#000;fill-opacity:0.101961;"/></svg>